<?xml version="1.0" encoding="UTF-8"?>
<svg id="Layer_1" data-name="Layer 1" xmlns="http://www.w3.org/2000/svg" viewBox="0 0 285.21 284.78">
  <defs>
    <style>
      .cls-1 {
        fill: #000048;
        stroke: #000;
        stroke-miterlimit: 10;
      }
    </style>
  </defs>
  <path class="cls-1" d="M142.61.5C64.12.5.5,64.12.5,142.61c0,71.82,53.28,131.18,122.46,140.75-.04-.31-.06-.64-.03-1.02.01-.16,0-.31,0-.47q-.47-8.67,8.12-10.25c7.05-1.29,14.13-2.44,21.16-3.85,2.48-.5,3.59,0,3.29,2.62-.02.15,0,.31,0,.47-.12,4.53,1.48,10.8-.62,13.32,72.74-6.22,129.84-67.22,129.84-141.57C284.71,64.12,221.09.5,142.61.5ZM203.33,31.86c-.38,5.45-.26,10.96-.03,16.43.14,3.37-.52,4.32-4.11,3.24-8.89-2.66-17.96-3.94-27.31-2.68-11.15,1.51-16.33,7.14-16.39,18.43-.04,7.99.23,15.98-.1,23.96-.17,4.13,1.39,4.9,5.11,4.83,11.12-.22,22.25.03,33.37-.15,3.39-.05,4.86.83,4.67,4.46-.26,4.84-.27,9.72,0,14.56.21,3.68-1.34,4.47-4.69,4.41-10.65-.17-21.31-.1-31.96-.05-7.3.03-6.39-.81-6.39,6.62-.03,37.11-.09,74.23.1,111.34.02,4.21-1.3,5.69-5.28,6.23-7.74,1.07-15.48,2.34-23.11,4.03-3.52.78-3.94-.35-3.93-3.34.08-20.2.04-40.4.04-60.6,0-19.89-.1-39.78.08-59.66.03-3.76-1.09-4.84-4.77-4.71-7.2.27-14.41.01-21.62.11-2.43.04-3.79-.41-3.69-3.3.18-5.63.15-11.28.01-16.91-.07-2.57,1.04-3.19,3.36-3.16,6.42.1,12.85.08,19.27.02,8.33-.07,7.24,1.09,7.35-7.13.12-9.08-.53-18.25.52-27.22,2.49-21.3,15.55-33.88,37.4-36.96,12.33-1.74,24.63-1.45,36.93.72,4.01.71,5.48,2.33,5.19,6.47Z"/>
</svg>